<?xml version="1.0" encoding="UTF-8" standalone="no"?><!DOCTYPE svg PUBLIC "-//W3C//DTD SVG 1.1//EN" "http://www.w3.org/Graphics/SVG/1.1/DTD/svg11.dtd"><svg width="100%" height="100%" viewBox="0 0 540 540" version="1.1" xmlns="http://www.w3.org/2000/svg" xmlns:xlink="http://www.w3.org/1999/xlink" xml:space="preserve" xmlns:serif="http://www.serif.com/" style="fill-rule:evenodd;clip-rule:evenodd;stroke-linejoin:round;stroke-miterlimit:2;"><g transform="matrix(0.805414,0,0,0.53215,-42.4388,25.3663)"><g transform="matrix(670,0,0,670,641.627,698.199)"></g><text x="133.892px" y="698.199px" style="font-family:'DINAlternate-Bold', 'DIN Alternate', sans-serif;font-weight:700;font-size:670px;fill:#0081eb;">M</text><path d="M499.408,497.275l-64.967,149.103l-16.584,13.514l-60.195,0l-16.584,-13.514l-64.639,-148.352l-0,200.173l-19.866,30.067l-72.3,0l-19.865,-30.067l-0,-476.982l19.865,-30.067l68.047,0l16.535,13.402l120.053,272.848l117.659,-272.626l16.632,-13.624l68.374,0l19.866,30.067l-0,476.982l-19.866,30.067l-72.3,0l-19.865,-30.067l-0,-200.924Zm-315.135,200.924l72.3,0l0,-297.377l1.309,-0l99.78,229.003l60.195,0l99.781,-229.003l1.635,-0l0,297.377l72.3,0l0,-476.982l-68.374,0l-134.131,310.791l-136.748,-310.791l-68.047,0l0,476.982Z" style="fill:#003f72;"/></g></svg>